<mxfile host="app.diagrams.net" agent="Mozilla/5.0 (Windows NT 10.0; Win64; x64) AppleWebKit/537.36 (KHTML, like Gecko) Chrome/134.0.0.0 Safari/537.36" version="26.1.3">
  <diagram name="Page-1" id="ClBDFTrlVil5nWFejEg2">
    <mxGraphModel dx="2017" dy="670" grid="1" gridSize="10" guides="1" tooltips="1" connect="1" arrows="1" fold="1" page="1" pageScale="1" pageWidth="850" pageHeight="1100" math="0" shadow="0">
      <root>
        <mxCell id="0" />
        <mxCell id="1" parent="0" />
        <mxCell id="jbbtdIAwkqoKD0javM4b-1" value="&lt;font style=&quot;font-size: 19px;&quot;&gt;doctor&lt;/font&gt;" style="whiteSpace=wrap;html=1;align=center;" parent="1" vertex="1">
          <mxGeometry x="-360" y="590" width="100" height="40" as="geometry" />
        </mxCell>
        <mxCell id="jbbtdIAwkqoKD0javM4b-2" value="doctor_name" style="ellipse;whiteSpace=wrap;html=1;align=center;rotation=0;" parent="1" vertex="1">
          <mxGeometry x="-480" y="510" width="80" height="28.65" as="geometry" />
        </mxCell>
        <mxCell id="jbbtdIAwkqoKD0javM4b-3" value="doctor_email" style="ellipse;whiteSpace=wrap;html=1;align=center;rotation=0;" parent="1" vertex="1">
          <mxGeometry x="-500" y="558.73" width="100" height="27.08" as="geometry" />
        </mxCell>
        <mxCell id="jbbtdIAwkqoKD0javM4b-4" value="doctor_password" style="ellipse;whiteSpace=wrap;html=1;align=center;" parent="1" vertex="1">
          <mxGeometry x="-392.53" y="508.62" width="110" height="30.03" as="geometry" />
        </mxCell>
        <mxCell id="jbbtdIAwkqoKD0javM4b-5" value="doctor_id" style="ellipse;whiteSpace=wrap;html=1;align=center;fontStyle=4;rotation=0;" parent="1" vertex="1">
          <mxGeometry x="-487.32" y="602.93" width="77.32" height="27.07" as="geometry" />
        </mxCell>
        <mxCell id="jbbtdIAwkqoKD0javM4b-8" value="mobile" style="ellipse;whiteSpace=wrap;html=1;align=center;rotation=0;" parent="1" vertex="1">
          <mxGeometry x="-470" y="654.2800000000001" width="60" height="20.65" as="geometry" />
        </mxCell>
        <mxCell id="jbbtdIAwkqoKD0javM4b-9" value="qualification" style="ellipse;whiteSpace=wrap;html=1;align=center;rotation=0;" parent="1" vertex="1">
          <mxGeometry x="-410" y="674.93" width="81.95" height="25.78" as="geometry" />
        </mxCell>
        <mxCell id="jbbtdIAwkqoKD0javM4b-14" value="registration_number" style="ellipse;whiteSpace=wrap;html=1;align=center;rotation=0;" parent="1" vertex="1">
          <mxGeometry x="-270" y="680" width="130" height="25.78" as="geometry" />
        </mxCell>
        <mxCell id="jbbtdIAwkqoKD0javM4b-20" value="" style="endArrow=none;html=1;rounded=0;entryX=0.5;entryY=1;entryDx=0;entryDy=0;exitX=0.5;exitY=0;exitDx=0;exitDy=0;" parent="1" source="jbbtdIAwkqoKD0javM4b-1" target="jbbtdIAwkqoKD0javM4b-4" edge="1">
          <mxGeometry relative="1" as="geometry">
            <mxPoint x="-410" y="556.26" as="sourcePoint" />
            <mxPoint x="-250" y="556.26" as="targetPoint" />
          </mxGeometry>
        </mxCell>
        <mxCell id="jbbtdIAwkqoKD0javM4b-21" value="" style="endArrow=none;html=1;rounded=0;exitX=0;exitY=0.5;exitDx=0;exitDy=0;" parent="1" source="jbbtdIAwkqoKD0javM4b-1" edge="1">
          <mxGeometry relative="1" as="geometry">
            <mxPoint x="-280" y="578.65" as="sourcePoint" />
            <mxPoint x="-410" y="616" as="targetPoint" />
          </mxGeometry>
        </mxCell>
        <mxCell id="jbbtdIAwkqoKD0javM4b-23" value="" style="endArrow=none;html=1;rounded=0;entryX=0.5;entryY=0;entryDx=0;entryDy=0;exitX=0.75;exitY=1;exitDx=0;exitDy=0;" parent="1" source="jbbtdIAwkqoKD0javM4b-1" target="jbbtdIAwkqoKD0javM4b-14" edge="1">
          <mxGeometry relative="1" as="geometry">
            <mxPoint x="-240" y="666.41" as="sourcePoint" />
            <mxPoint x="-162" y="656.41" as="targetPoint" />
          </mxGeometry>
        </mxCell>
        <mxCell id="jbbtdIAwkqoKD0javM4b-24" value="" style="endArrow=none;html=1;rounded=0;exitX=0.25;exitY=0;exitDx=0;exitDy=0;entryX=0.69;entryY=0.966;entryDx=0;entryDy=0;entryPerimeter=0;" parent="1" source="jbbtdIAwkqoKD0javM4b-1" target="jbbtdIAwkqoKD0javM4b-2" edge="1">
          <mxGeometry relative="1" as="geometry">
            <mxPoint x="-350" y="568.65" as="sourcePoint" />
            <mxPoint x="-380" y="528.65" as="targetPoint" />
          </mxGeometry>
        </mxCell>
        <mxCell id="jbbtdIAwkqoKD0javM4b-26" value="" style="endArrow=none;html=1;rounded=0;exitX=0;exitY=0;exitDx=0;exitDy=0;entryX=1;entryY=0.5;entryDx=0;entryDy=0;" parent="1" source="jbbtdIAwkqoKD0javM4b-1" target="jbbtdIAwkqoKD0javM4b-3" edge="1">
          <mxGeometry relative="1" as="geometry">
            <mxPoint x="-340" y="588.65" as="sourcePoint" />
            <mxPoint x="-372" y="534.65" as="targetPoint" />
          </mxGeometry>
        </mxCell>
        <mxCell id="jbbtdIAwkqoKD0javM4b-27" value="" style="endArrow=none;html=1;rounded=0;entryX=1;entryY=0.5;entryDx=0;entryDy=0;exitX=-0.013;exitY=0.845;exitDx=0;exitDy=0;exitPerimeter=0;" parent="1" source="jbbtdIAwkqoKD0javM4b-1" target="jbbtdIAwkqoKD0javM4b-8" edge="1">
          <mxGeometry relative="1" as="geometry">
            <mxPoint x="-390" y="595.65" as="sourcePoint" />
            <mxPoint x="-447" y="578.65" as="targetPoint" />
          </mxGeometry>
        </mxCell>
        <mxCell id="jbbtdIAwkqoKD0javM4b-28" value="" style="endArrow=none;html=1;rounded=0;entryX=0.664;entryY=0.144;entryDx=0;entryDy=0;exitX=0.25;exitY=1;exitDx=0;exitDy=0;entryPerimeter=0;" parent="1" source="jbbtdIAwkqoKD0javM4b-1" target="jbbtdIAwkqoKD0javM4b-9" edge="1">
          <mxGeometry relative="1" as="geometry">
            <mxPoint x="-380" y="605.65" as="sourcePoint" />
            <mxPoint x="-487" y="630.65" as="targetPoint" />
          </mxGeometry>
        </mxCell>
        <mxCell id="jbbtdIAwkqoKD0javM4b-49" value="chief_complaint" style="ellipse;whiteSpace=wrap;html=1;align=center;" parent="1" vertex="1">
          <mxGeometry x="-5.680000000000007" y="625.55" width="93.75" height="23.14" as="geometry" />
        </mxCell>
        <mxCell id="jbbtdIAwkqoKD0javM4b-51" value="dosage" style="ellipse;whiteSpace=wrap;html=1;align=center;rotation=0;" parent="1" vertex="1">
          <mxGeometry x="11.190000000000055" y="520.0300000000001" width="60" height="24.62" as="geometry" />
        </mxCell>
        <mxCell id="jbbtdIAwkqoKD0javM4b-52" value="before_after" style="ellipse;whiteSpace=wrap;html=1;align=center;rotation=0;" parent="1" vertex="1">
          <mxGeometry x="31.75" y="560.03" width="73.88" height="25.78" as="geometry" />
        </mxCell>
        <mxCell id="jbbtdIAwkqoKD0javM4b-63" value="duration" style="ellipse;whiteSpace=wrap;html=1;align=center;rotation=0;" parent="1" vertex="1">
          <mxGeometry x="37.46999999999997" y="599.35" width="64.94" height="18.26" as="geometry" />
        </mxCell>
        <mxCell id="jbbtdIAwkqoKD0javM4b-70" value="&lt;span style=&quot;font-size: 20px;&quot;&gt;prescription&lt;/span&gt;" style="whiteSpace=wrap;html=1;align=center;" parent="1" vertex="1">
          <mxGeometry x="-115.06" y="775.0600000000001" width="140" height="40" as="geometry" />
        </mxCell>
        <mxCell id="jbbtdIAwkqoKD0javM4b-72" value="prescription_id" style="ellipse;whiteSpace=wrap;html=1;align=center;fontStyle=4;" parent="1" vertex="1">
          <mxGeometry x="-150.06" y="865.0600000000001" width="106.25" height="30" as="geometry" />
        </mxCell>
        <mxCell id="jbbtdIAwkqoKD0javM4b-81" value="problem" style="ellipse;whiteSpace=wrap;html=1;align=center;" parent="1" vertex="1">
          <mxGeometry x="-30" y="867.5600000000001" width="80" height="25" as="geometry" />
        </mxCell>
        <mxCell id="jbbtdIAwkqoKD0javM4b-84" value="" style="endArrow=none;html=1;rounded=0;exitX=0.5;exitY=0;exitDx=0;exitDy=0;entryX=0.181;entryY=1.008;entryDx=0;entryDy=0;entryPerimeter=0;" parent="1" source="jbbtdIAwkqoKD0javM4b-72" target="jbbtdIAwkqoKD0javM4b-70" edge="1">
          <mxGeometry relative="1" as="geometry">
            <mxPoint x="-155.06" y="690.0600000000001" as="sourcePoint" />
            <mxPoint x="4.939999999999998" y="690.0600000000001" as="targetPoint" />
          </mxGeometry>
        </mxCell>
        <mxCell id="jbbtdIAwkqoKD0javM4b-85" value="" style="endArrow=none;html=1;rounded=0;exitX=0.5;exitY=0;exitDx=0;exitDy=0;entryX=0.654;entryY=1.016;entryDx=0;entryDy=0;entryPerimeter=0;" parent="1" source="jbbtdIAwkqoKD0javM4b-81" target="jbbtdIAwkqoKD0javM4b-70" edge="1">
          <mxGeometry relative="1" as="geometry">
            <mxPoint x="-155.06" y="805.0600000000001" as="sourcePoint" />
            <mxPoint x="-105.06" y="800.0600000000001" as="targetPoint" />
          </mxGeometry>
        </mxCell>
        <mxCell id="jbbtdIAwkqoKD0javM4b-99" value="&lt;font style=&quot;font-size: 20px;&quot;&gt;patient&lt;/font&gt;" style="whiteSpace=wrap;html=1;align=center;" parent="1" vertex="1">
          <mxGeometry x="-340.85" y="945" width="100" height="30" as="geometry" />
        </mxCell>
        <mxCell id="jbbtdIAwkqoKD0javM4b-100" value="patient_id" style="ellipse;whiteSpace=wrap;html=1;align=center;fontStyle=4;" parent="1" vertex="1">
          <mxGeometry x="-343.9" y="1015" width="100" height="25" as="geometry" />
        </mxCell>
        <mxCell id="jbbtdIAwkqoKD0javM4b-101" value="patient_birth_regi_no" style="ellipse;whiteSpace=wrap;html=1;align=center;" parent="1" vertex="1">
          <mxGeometry x="-230.02" y="960" width="146.95" height="25" as="geometry" />
        </mxCell>
        <mxCell id="jbbtdIAwkqoKD0javM4b-102" value="patient_NID" style="ellipse;whiteSpace=wrap;html=1;align=center;" parent="1" vertex="1">
          <mxGeometry x="-431.27" y="1005" width="80" height="25" as="geometry" />
        </mxCell>
        <mxCell id="jbbtdIAwkqoKD0javM4b-103" value="patient_name" style="ellipse;whiteSpace=wrap;html=1;align=center;" parent="1" vertex="1">
          <mxGeometry x="-470" y="960" width="90" height="30" as="geometry" />
        </mxCell>
        <mxCell id="jbbtdIAwkqoKD0javM4b-104" value="patient_gender" style="ellipse;whiteSpace=wrap;html=1;align=center;" parent="1" vertex="1">
          <mxGeometry x="-450" y="905" width="90" height="25" as="geometry" />
        </mxCell>
        <mxCell id="jbbtdIAwkqoKD0javM4b-105" value="" style="endArrow=none;html=1;rounded=0;exitX=1;exitY=0.5;exitDx=0;exitDy=0;entryX=0;entryY=0.5;entryDx=0;entryDy=0;" parent="1" source="jbbtdIAwkqoKD0javM4b-103" target="jbbtdIAwkqoKD0javM4b-99" edge="1">
          <mxGeometry relative="1" as="geometry">
            <mxPoint x="-408.90000000000003" y="865" as="sourcePoint" />
            <mxPoint x="-248.9" y="865" as="targetPoint" />
          </mxGeometry>
        </mxCell>
        <mxCell id="jbbtdIAwkqoKD0javM4b-106" value="" style="endArrow=none;html=1;rounded=0;exitX=1;exitY=0;exitDx=0;exitDy=0;entryX=0;entryY=1;entryDx=0;entryDy=0;" parent="1" source="jbbtdIAwkqoKD0javM4b-102" target="jbbtdIAwkqoKD0javM4b-99" edge="1">
          <mxGeometry relative="1" as="geometry">
            <mxPoint x="-408.90000000000003" y="980" as="sourcePoint" />
            <mxPoint x="-358.90000000000003" y="975" as="targetPoint" />
          </mxGeometry>
        </mxCell>
        <mxCell id="jbbtdIAwkqoKD0javM4b-107" value="" style="endArrow=none;html=1;rounded=0;exitX=0.5;exitY=0;exitDx=0;exitDy=0;" parent="1" source="jbbtdIAwkqoKD0javM4b-100" target="jbbtdIAwkqoKD0javM4b-99" edge="1">
          <mxGeometry relative="1" as="geometry">
            <mxPoint x="-380.90000000000003" y="1021" as="sourcePoint" />
            <mxPoint x="-358.90000000000003" y="1005" as="targetPoint" />
          </mxGeometry>
        </mxCell>
        <mxCell id="jbbtdIAwkqoKD0javM4b-108" value="" style="endArrow=none;html=1;rounded=0;exitX=1;exitY=1;exitDx=0;exitDy=0;entryX=0;entryY=0;entryDx=0;entryDy=0;" parent="1" source="jbbtdIAwkqoKD0javM4b-104" target="jbbtdIAwkqoKD0javM4b-99" edge="1">
          <mxGeometry relative="1" as="geometry">
            <mxPoint x="-283.90000000000003" y="1025" as="sourcePoint" />
            <mxPoint x="-288.90000000000003" y="1005" as="targetPoint" />
          </mxGeometry>
        </mxCell>
        <mxCell id="jbbtdIAwkqoKD0javM4b-109" value="" style="endArrow=none;html=1;rounded=0;exitX=0;exitY=0.5;exitDx=0;exitDy=0;entryX=1.003;entryY=0.653;entryDx=0;entryDy=0;entryPerimeter=0;" parent="1" source="jbbtdIAwkqoKD0javM4b-101" target="jbbtdIAwkqoKD0javM4b-99" edge="1">
          <mxGeometry relative="1" as="geometry">
            <mxPoint x="-173.9" y="1028" as="sourcePoint" />
            <mxPoint x="-288.90000000000003" y="930" as="targetPoint" />
          </mxGeometry>
        </mxCell>
        <mxCell id="Ny59YyF_WHzDi1XFRu8P-16" value="&lt;font style=&quot;font-size: 19px;&quot;&gt;specialization&lt;/font&gt;" style="whiteSpace=wrap;html=1;align=center;" parent="1" vertex="1">
          <mxGeometry x="-352.52" y="345" width="160" height="32.5" as="geometry" />
        </mxCell>
        <mxCell id="Ny59YyF_WHzDi1XFRu8P-17" value="specialization_id" style="ellipse;whiteSpace=wrap;html=1;align=center;fontStyle=4;flipH=0;flipV=0;" parent="1" vertex="1">
          <mxGeometry x="-331.27" y="290" width="117.5" height="40" as="geometry" />
        </mxCell>
        <mxCell id="Ny59YyF_WHzDi1XFRu8P-18" value="specialization_name" style="ellipse;whiteSpace=wrap;html=1;align=center;flipH=0;flipV=0;" parent="1" vertex="1">
          <mxGeometry x="-425" y="400" width="115" height="40" as="geometry" />
        </mxCell>
        <mxCell id="Ny59YyF_WHzDi1XFRu8P-19" value="" style="endArrow=none;html=1;rounded=0;entryX=0.45;entryY=0.991;entryDx=0;entryDy=0;exitX=0.464;exitY=0.014;exitDx=0;exitDy=0;exitPerimeter=0;entryPerimeter=0;" parent="1" source="Ny59YyF_WHzDi1XFRu8P-16" target="Ny59YyF_WHzDi1XFRu8P-17" edge="1">
          <mxGeometry relative="1" as="geometry">
            <mxPoint x="-431.4731818181813" y="168.72000000000116" as="sourcePoint" />
            <mxPoint x="-370.4731818181813" y="129.72000000000116" as="targetPoint" />
          </mxGeometry>
        </mxCell>
        <mxCell id="Ny59YyF_WHzDi1XFRu8P-20" value="" style="endArrow=none;html=1;rounded=0;exitX=0.718;exitY=0.03;exitDx=0;exitDy=0;exitPerimeter=0;entryX=0.101;entryY=0.955;entryDx=0;entryDy=0;entryPerimeter=0;" parent="1" source="Ny59YyF_WHzDi1XFRu8P-18" target="Ny59YyF_WHzDi1XFRu8P-16" edge="1">
          <mxGeometry relative="1" as="geometry">
            <mxPoint x="-276.2531818181824" y="429.0399999999995" as="sourcePoint" />
            <mxPoint x="-340" y="380" as="targetPoint" />
          </mxGeometry>
        </mxCell>
        <mxCell id="Ny59YyF_WHzDi1XFRu8P-21" value="&lt;font style=&quot;font-size: 19px;&quot;&gt;medicine&lt;/font&gt;" style="whiteSpace=wrap;html=1;align=center;flipH=0;flipV=0;" parent="1" vertex="1">
          <mxGeometry x="-138.25" y="402.5" width="170" height="32.5" as="geometry" />
        </mxCell>
        <mxCell id="Ny59YyF_WHzDi1XFRu8P-22" value="medicine_id" style="ellipse;whiteSpace=wrap;html=1;align=center;fontStyle=4;flipH=0;flipV=0;" parent="1" vertex="1">
          <mxGeometry x="-112" y="345" width="117.5" height="40" as="geometry" />
        </mxCell>
        <mxCell id="Ny59YyF_WHzDi1XFRu8P-23" value="medicine_name" style="ellipse;whiteSpace=wrap;html=1;align=center;flipH=0;flipV=0;" parent="1" vertex="1">
          <mxGeometry x="-180" y="460" width="115" height="20" as="geometry" />
        </mxCell>
        <mxCell id="Ny59YyF_WHzDi1XFRu8P-24" value="" style="endArrow=none;html=1;rounded=0;entryX=0.45;entryY=0.991;entryDx=0;entryDy=0;exitX=0.464;exitY=0.014;exitDx=0;exitDy=0;exitPerimeter=0;entryPerimeter=0;" parent="1" source="Ny59YyF_WHzDi1XFRu8P-21" target="Ny59YyF_WHzDi1XFRu8P-22" edge="1">
          <mxGeometry relative="1" as="geometry">
            <mxPoint x="-203.26000000000022" y="257.81000000000085" as="sourcePoint" />
            <mxPoint x="-142.26000000000022" y="218.81000000000085" as="targetPoint" />
          </mxGeometry>
        </mxCell>
        <mxCell id="Ny59YyF_WHzDi1XFRu8P-25" value="" style="endArrow=none;html=1;rounded=0;exitX=0.509;exitY=0.012;exitDx=0;exitDy=0;exitPerimeter=0;entryX=0.175;entryY=0.994;entryDx=0;entryDy=0;entryPerimeter=0;" parent="1" source="Ny59YyF_WHzDi1XFRu8P-23" target="Ny59YyF_WHzDi1XFRu8P-21" edge="1">
          <mxGeometry relative="1" as="geometry">
            <mxPoint x="8.676818181818504" y="439.0399999999995" as="sourcePoint" />
            <mxPoint x="8.73681818181845" y="424.0399999999995" as="targetPoint" />
          </mxGeometry>
        </mxCell>
        <mxCell id="Ny59YyF_WHzDi1XFRu8P-32" value="doctor_specialization" style="shape=rhombus;perimeter=rhombusPerimeter;whiteSpace=wrap;html=1;align=center;" parent="1" vertex="1">
          <mxGeometry x="-345.06" y="450" width="140" height="50" as="geometry" />
        </mxCell>
        <mxCell id="Ny59YyF_WHzDi1XFRu8P-33" value="" style="fontSize=12;html=1;endArrow=ERoneToMany;rounded=0;entryX=0.825;entryY=-0.031;entryDx=0;entryDy=0;exitX=0.5;exitY=1;exitDx=0;exitDy=0;entryPerimeter=0;" parent="1" source="Ny59YyF_WHzDi1XFRu8P-32" target="jbbtdIAwkqoKD0javM4b-1" edge="1">
          <mxGeometry width="100" height="100" relative="1" as="geometry">
            <mxPoint x="-95" y="639" as="sourcePoint" />
            <mxPoint x="55" y="830" as="targetPoint" />
          </mxGeometry>
        </mxCell>
        <mxCell id="Ny59YyF_WHzDi1XFRu8P-36" value="patient_dob" style="ellipse;whiteSpace=wrap;html=1;align=center;" parent="1" vertex="1">
          <mxGeometry x="-240.85" y="1000" width="80" height="20" as="geometry" />
        </mxCell>
        <mxCell id="Ny59YyF_WHzDi1XFRu8P-37" value="" style="endArrow=none;html=1;rounded=0;exitX=0;exitY=0;exitDx=0;exitDy=0;entryX=0.75;entryY=1;entryDx=0;entryDy=0;" parent="1" source="Ny59YyF_WHzDi1XFRu8P-36" target="jbbtdIAwkqoKD0javM4b-99" edge="1">
          <mxGeometry relative="1" as="geometry">
            <mxPoint x="-283.90000000000003" y="1025" as="sourcePoint" />
            <mxPoint x="-288.90000000000003" y="1005" as="targetPoint" />
          </mxGeometry>
        </mxCell>
        <mxCell id="Ny59YyF_WHzDi1XFRu8P-38" value="prescribed_medicine" style="shape=rhombus;perimeter=rhombusPerimeter;whiteSpace=wrap;html=1;align=center;flipH=0;flipV=0;" parent="1" vertex="1">
          <mxGeometry x="-135.06" y="566.14" width="160" height="53.86" as="geometry" />
        </mxCell>
        <mxCell id="Ny59YyF_WHzDi1XFRu8P-39" value="" style="edgeStyle=orthogonalEdgeStyle;fontSize=12;html=1;endArrow=ERoneToMany;rounded=0;endSize=9;exitX=0.5;exitY=0;exitDx=0;exitDy=0;entryX=0.5;entryY=1;entryDx=0;entryDy=0;" parent="1" source="Ny59YyF_WHzDi1XFRu8P-38" target="Ny59YyF_WHzDi1XFRu8P-21" edge="1">
          <mxGeometry width="100" height="100" relative="1" as="geometry">
            <mxPoint x="163.94" y="378" as="sourcePoint" />
            <mxPoint x="-56" y="430" as="targetPoint" />
          </mxGeometry>
        </mxCell>
        <mxCell id="Ny59YyF_WHzDi1XFRu8P-40" value="" style="fontSize=12;html=1;endArrow=ERoneToMany;rounded=0;endSize=9;exitX=0.5;exitY=1;exitDx=0;exitDy=0;entryX=0.443;entryY=0.077;entryDx=0;entryDy=0;entryPerimeter=0;" parent="1" source="Ny59YyF_WHzDi1XFRu8P-38" target="jbbtdIAwkqoKD0javM4b-70" edge="1">
          <mxGeometry width="100" height="100" relative="1" as="geometry">
            <mxPoint x="174.94" y="576" as="sourcePoint" />
            <mxPoint x="64.94" y="800.8888753255209" as="targetPoint" />
          </mxGeometry>
        </mxCell>
        <mxCell id="Ny59YyF_WHzDi1XFRu8P-41" value="" style="endArrow=none;dashed=1;html=1;rounded=0;exitX=1;exitY=0;exitDx=0;exitDy=0;entryX=0.245;entryY=0.955;entryDx=0;entryDy=0;entryPerimeter=0;" parent="1" source="Ny59YyF_WHzDi1XFRu8P-38" target="jbbtdIAwkqoKD0javM4b-51" edge="1">
          <mxGeometry width="50" height="50" relative="1" as="geometry">
            <mxPoint x="-25.060000000000002" y="570" as="sourcePoint" />
            <mxPoint x="34.94" y="540" as="targetPoint" />
          </mxGeometry>
        </mxCell>
        <mxCell id="Ny59YyF_WHzDi1XFRu8P-42" value="" style="endArrow=none;dashed=1;html=1;rounded=0;exitX=0.885;exitY=0.376;exitDx=0;exitDy=0;entryX=0;entryY=0.5;entryDx=0;entryDy=0;exitPerimeter=0;" parent="1" source="Ny59YyF_WHzDi1XFRu8P-38" target="jbbtdIAwkqoKD0javM4b-52" edge="1">
          <mxGeometry width="50" height="50" relative="1" as="geometry">
            <mxPoint x="-5.060000000000002" y="590" as="sourcePoint" />
            <mxPoint x="35.94" y="554" as="targetPoint" />
          </mxGeometry>
        </mxCell>
        <mxCell id="Ny59YyF_WHzDi1XFRu8P-43" value="" style="endArrow=none;dashed=1;html=1;rounded=0;exitX=0.946;exitY=0.577;exitDx=0;exitDy=0;entryX=0;entryY=0.5;entryDx=0;entryDy=0;exitPerimeter=0;" parent="1" source="Ny59YyF_WHzDi1XFRu8P-38" target="jbbtdIAwkqoKD0javM4b-63" edge="1">
          <mxGeometry width="50" height="50" relative="1" as="geometry">
            <mxPoint x="16.939999999999998" y="596" as="sourcePoint" />
            <mxPoint x="41.94" y="583" as="targetPoint" />
          </mxGeometry>
        </mxCell>
        <mxCell id="Ny59YyF_WHzDi1XFRu8P-44" value="" style="endArrow=none;dashed=1;html=1;rounded=0;exitX=0.852;exitY=0.647;exitDx=0;exitDy=0;exitPerimeter=0;entryX=0.35;entryY=-0.024;entryDx=0;entryDy=0;entryPerimeter=0;" parent="1" source="Ny59YyF_WHzDi1XFRu8P-38" target="jbbtdIAwkqoKD0javM4b-49" edge="1">
          <mxGeometry width="50" height="50" relative="1" as="geometry">
            <mxPoint x="22.939999999999998" y="611" as="sourcePoint" />
            <mxPoint x="24.939999999999998" y="620" as="targetPoint" />
          </mxGeometry>
        </mxCell>
        <mxCell id="FU_f0k-QAeN1vuseyPI--4" value="appointment_date" style="ellipse;whiteSpace=wrap;html=1;align=center;" parent="1" vertex="1">
          <mxGeometry x="-455.98" y="836.86" width="101.95" height="23.14" as="geometry" />
        </mxCell>
        <mxCell id="FU_f0k-QAeN1vuseyPI--5" value="phone" style="ellipse;whiteSpace=wrap;html=1;align=center;rotation=0;" parent="1" vertex="1">
          <mxGeometry x="-230.01999999999992" y="731.3400000000001" width="60" height="24.62" as="geometry" />
        </mxCell>
        <mxCell id="FU_f0k-QAeN1vuseyPI--6" value="status" style="ellipse;whiteSpace=wrap;html=1;align=center;rotation=0;" parent="1" vertex="1">
          <mxGeometry x="-433.88" y="739.9999999999999" width="73.88" height="25.78" as="geometry" />
        </mxCell>
        <mxCell id="FU_f0k-QAeN1vuseyPI--7" value="problem" style="ellipse;whiteSpace=wrap;html=1;align=center;rotation=0;" parent="1" vertex="1">
          <mxGeometry x="-270" y="839.3000000000001" width="64.94" height="18.26" as="geometry" />
        </mxCell>
        <mxCell id="FU_f0k-QAeN1vuseyPI--13" value="appointment_no" style="ellipse;whiteSpace=wrap;html=1;align=center;fontStyle=4;" parent="1" vertex="1">
          <mxGeometry x="-470" y="786.99" width="106.25" height="30" as="geometry" />
        </mxCell>
        <mxCell id="FU_f0k-QAeN1vuseyPI--17" value="" style="fontSize=12;html=1;endArrow=ERoneToMany;rounded=0;exitX=0.5;exitY=0;exitDx=0;exitDy=0;entryX=0.5;entryY=1;entryDx=0;entryDy=0;" parent="1" source="Ny59YyF_WHzDi1XFRu8P-32" target="Ny59YyF_WHzDi1XFRu8P-16" edge="1">
          <mxGeometry width="100" height="100" relative="1" as="geometry">
            <mxPoint x="-265" y="510" as="sourcePoint" />
            <mxPoint x="-280" y="380" as="targetPoint" />
          </mxGeometry>
        </mxCell>
        <mxCell id="fthoK1puPD9MAaoYh8Hu-1" value="" style="endArrow=none;html=1;rounded=0;exitX=-0.001;exitY=0.612;exitDx=0;exitDy=0;entryX=1;entryY=0.5;entryDx=0;entryDy=0;exitPerimeter=0;" edge="1" parent="1" source="fthoK1puPD9MAaoYh8Hu-3" target="FU_f0k-QAeN1vuseyPI--13">
          <mxGeometry relative="1" as="geometry">
            <mxPoint x="-351.27" y="801.99" as="sourcePoint" />
            <mxPoint x="-80" y="825" as="targetPoint" />
          </mxGeometry>
        </mxCell>
        <mxCell id="fthoK1puPD9MAaoYh8Hu-2" value="" style="endArrow=none;html=1;rounded=0;entryX=1;entryY=0.5;entryDx=0;entryDy=0;exitX=0.103;exitY=0.965;exitDx=0;exitDy=0;exitPerimeter=0;" edge="1" parent="1" source="fthoK1puPD9MAaoYh8Hu-3" target="FU_f0k-QAeN1vuseyPI--4">
          <mxGeometry relative="1" as="geometry">
            <mxPoint x="-360" y="820" as="sourcePoint" />
            <mxPoint x="-354" y="812" as="targetPoint" />
          </mxGeometry>
        </mxCell>
        <mxCell id="fthoK1puPD9MAaoYh8Hu-3" value="&lt;span style=&quot;font-size: 20px;&quot;&gt;appointment&lt;/span&gt;" style="whiteSpace=wrap;html=1;align=center;" vertex="1" parent="1">
          <mxGeometry x="-345.06" y="776.99" width="140" height="40" as="geometry" />
        </mxCell>
        <mxCell id="fthoK1puPD9MAaoYh8Hu-5" value="" style="endArrow=none;html=1;rounded=0;exitX=0.75;exitY=1;exitDx=0;exitDy=0;entryX=0.5;entryY=0;entryDx=0;entryDy=0;" edge="1" parent="1" source="fthoK1puPD9MAaoYh8Hu-3" target="FU_f0k-QAeN1vuseyPI--7">
          <mxGeometry relative="1" as="geometry">
            <mxPoint x="-104" y="812" as="sourcePoint" />
            <mxPoint x="-195" y="807" as="targetPoint" />
          </mxGeometry>
        </mxCell>
        <mxCell id="fthoK1puPD9MAaoYh8Hu-6" value="" style="endArrow=none;html=1;rounded=0;exitX=0;exitY=1;exitDx=0;exitDy=0;entryX=0.685;entryY=0.024;entryDx=0;entryDy=0;entryPerimeter=0;" edge="1" parent="1" source="FU_f0k-QAeN1vuseyPI--5" target="fthoK1puPD9MAaoYh8Hu-3">
          <mxGeometry relative="1" as="geometry">
            <mxPoint x="-230" y="827" as="sourcePoint" />
            <mxPoint x="-228" y="849" as="targetPoint" />
          </mxGeometry>
        </mxCell>
        <mxCell id="fthoK1puPD9MAaoYh8Hu-7" value="" style="endArrow=none;html=1;rounded=0;exitX=0.965;exitY=0.705;exitDx=0;exitDy=0;entryX=0.204;entryY=-0.035;entryDx=0;entryDy=0;entryPerimeter=0;exitPerimeter=0;" edge="1" parent="1" source="FU_f0k-QAeN1vuseyPI--6" target="fthoK1puPD9MAaoYh8Hu-3">
          <mxGeometry relative="1" as="geometry">
            <mxPoint x="-212" y="762" as="sourcePoint" />
            <mxPoint x="-239" y="788" as="targetPoint" />
          </mxGeometry>
        </mxCell>
        <mxCell id="fthoK1puPD9MAaoYh8Hu-8" value="has" style="shape=rhombus;perimeter=rhombusPerimeter;whiteSpace=wrap;html=1;align=center;flipH=0;flipV=0;" vertex="1" parent="1">
          <mxGeometry x="-185.20999999999998" y="775.0600000000001" width="57.32" height="49.81" as="geometry" />
        </mxCell>
        <mxCell id="fthoK1puPD9MAaoYh8Hu-9" value="has" style="shape=rhombus;perimeter=rhombusPerimeter;whiteSpace=wrap;html=1;align=center;flipH=0;flipV=0;" vertex="1" parent="1">
          <mxGeometry x="-327.32" y="855.1500000000001" width="57.32" height="49.81" as="geometry" />
        </mxCell>
        <mxCell id="fthoK1puPD9MAaoYh8Hu-10" value="has" style="shape=rhombus;perimeter=rhombusPerimeter;whiteSpace=wrap;html=1;align=center;flipH=0;flipV=0;" vertex="1" parent="1">
          <mxGeometry x="-322.56" y="705.78" width="57.32" height="49.81" as="geometry" />
        </mxCell>
        <mxCell id="fthoK1puPD9MAaoYh8Hu-12" value="" style="fontSize=12;html=1;endArrow=ERoneToMany;rounded=0;endSize=9;exitX=0.5;exitY=0;exitDx=0;exitDy=0;entryX=0.313;entryY=1.013;entryDx=0;entryDy=0;entryPerimeter=0;" edge="1" parent="1" source="fthoK1puPD9MAaoYh8Hu-9" target="fthoK1puPD9MAaoYh8Hu-3">
          <mxGeometry width="100" height="100" relative="1" as="geometry">
            <mxPoint x="-45" y="630" as="sourcePoint" />
            <mxPoint x="-43" y="788" as="targetPoint" />
          </mxGeometry>
        </mxCell>
        <mxCell id="fthoK1puPD9MAaoYh8Hu-13" value="" style="endArrow=none;html=1;rounded=0;exitX=0.5;exitY=1;exitDx=0;exitDy=0;" edge="1" parent="1" source="fthoK1puPD9MAaoYh8Hu-9">
          <mxGeometry relative="1" as="geometry">
            <mxPoint x="-211" y="762" as="sourcePoint" />
            <mxPoint x="-299" y="944" as="targetPoint" />
          </mxGeometry>
        </mxCell>
        <mxCell id="fthoK1puPD9MAaoYh8Hu-14" value="" style="fontSize=12;html=1;endArrow=ERoneToMany;rounded=0;endSize=9;exitX=0.5;exitY=1;exitDx=0;exitDy=0;entryX=0.359;entryY=0.053;entryDx=0;entryDy=0;entryPerimeter=0;" edge="1" parent="1" source="fthoK1puPD9MAaoYh8Hu-10" target="fthoK1puPD9MAaoYh8Hu-3">
          <mxGeometry width="100" height="100" relative="1" as="geometry">
            <mxPoint x="-289" y="865" as="sourcePoint" />
            <mxPoint x="-300" y="770" as="targetPoint" />
          </mxGeometry>
        </mxCell>
        <mxCell id="fthoK1puPD9MAaoYh8Hu-15" value="" style="endArrow=none;html=1;rounded=0;exitX=0.5;exitY=1;exitDx=0;exitDy=0;entryX=0.5;entryY=0;entryDx=0;entryDy=0;" edge="1" parent="1" source="jbbtdIAwkqoKD0javM4b-1" target="fthoK1puPD9MAaoYh8Hu-10">
          <mxGeometry relative="1" as="geometry">
            <mxPoint x="-289" y="915" as="sourcePoint" />
            <mxPoint x="-289" y="954" as="targetPoint" />
          </mxGeometry>
        </mxCell>
        <mxCell id="fthoK1puPD9MAaoYh8Hu-16" value="" style="endArrow=none;html=1;rounded=0;exitX=0;exitY=0.5;exitDx=0;exitDy=0;entryX=1;entryY=0.5;entryDx=0;entryDy=0;" edge="1" parent="1" source="fthoK1puPD9MAaoYh8Hu-8" target="fthoK1puPD9MAaoYh8Hu-3">
          <mxGeometry relative="1" as="geometry">
            <mxPoint x="-300" y="640" as="sourcePoint" />
            <mxPoint x="-284" y="716" as="targetPoint" />
          </mxGeometry>
        </mxCell>
        <mxCell id="fthoK1puPD9MAaoYh8Hu-17" value="" style="endArrow=none;html=1;rounded=0;entryX=0;entryY=0.5;entryDx=0;entryDy=0;exitX=1;exitY=0.5;exitDx=0;exitDy=0;" edge="1" parent="1" source="fthoK1puPD9MAaoYh8Hu-8" target="jbbtdIAwkqoKD0javM4b-70">
          <mxGeometry relative="1" as="geometry">
            <mxPoint x="-130" y="800" as="sourcePoint" />
            <mxPoint x="-195" y="807" as="targetPoint" />
          </mxGeometry>
        </mxCell>
      </root>
    </mxGraphModel>
  </diagram>
</mxfile>
